<svg width="{16}" height="{17}" viewBox="0 0 16 17" fill="none" xmlns="http://www.w3.org/2000/svg" className="w-4 h-4 relative" preserveAspectRatio="xMidYMid meet"><path fill-rule="evenodd" clip-rule="evenodd" d="M5.5 5C5.5 3.61929 6.61929 2.5 8 2.5C9.38071 2.5 10.5 3.61929 10.5 5C10.5 6.38071 9.38071 7.5 8 7.5C6.61929 7.5 5.5 6.38071 5.5 5Z" fill="#A1A8AB"/><path fill-rule="evenodd" clip-rule="evenodd" d="M10.5 7C10.5 5.89543 11.3954 5 12.5 5C13.6046 5 14.5 5.89543 14.5 7C14.5 8.10457 13.6046 9 12.5 9C11.3954 9 10.5 8.10457 10.5 7Z" fill="#A1A8AB"/><path fill-rule="evenodd" clip-rule="evenodd" d="M1.5 7C1.5 5.89543 2.39543 5 3.5 5C4.60457 5 5.5 5.89543 5.5 7C5.5 8.10457 4.60457 9 3.5 9C2.39543 9 1.5 8.10457 1.5 7Z" fill="#A1A8AB"/><path fill-rule="evenodd" clip-rule="evenodd" d="M4.20657 10.5783C5.00522 9.32961 6.40557 8.5 8 8.5C9.59463 8.5 10.9951 9.32981 11.7937 10.5788C12.3458 11.4423 12.5847 12.4835 12.4726 13.4986C12.4551 13.6573 12.3629 13.798 12.2245 13.8774C10.9796 14.5917 9.53672 15 8 15C6.46328 15 5.02039 14.5917 3.7755 13.8774C3.63706 13.798 3.54486 13.6573 3.52736 13.4986C3.41529 12.4833 3.65427 11.4419 4.20657 10.5783Z" fill="#A1A8AB"/><path d="M3.38819 10.0025C3.38016 10.0148 3.37218 10.0272 3.36425 10.0396C2.72061 11.0459 2.42605 12.2445 2.51648 13.426C2.11111 13.3644 1.7178 13.2654 1.34029 13.1324L1.26365 13.1055C1.12384 13.0562 1.02615 12.9293 1.01439 12.7815L1.00795 12.7005C1.00268 12.6343 1 12.5674 1 12.5C1 11.1568 2.05936 10.0609 3.38819 10.0025Z" fill="#A1A8AB"/><path d="M13.4838 13.426C13.5742 12.2447 13.2797 11.0464 12.6363 10.0401C12.6283 10.0275 12.6202 10.015 12.6121 10.0025C13.9408 10.0611 15 11.1568 15 12.5C15 12.5674 14.9973 12.6343 14.9921 12.7005L14.9856 12.7815C14.9738 12.9293 14.8762 13.0562 14.7364 13.1055L14.6597 13.1324C14.2823 13.2654 13.889 13.3644 13.4838 13.426Z" fill="#A1A8AB"/></svg>