<svg width="{20}" height="{21}" viewBox="0 0 20 21" fill="none" xmlns="http://www.w3.org/2000/svg" className="w-5 h-5 relative" preserveAspectRatio="none"><path d="M5.52714 9.23364C6.1991 9.23364 6.8054 8.86211 7.22008 8.33336C7.86438 7.51184 8.67641 6.82814 9.60461 6.33382C10.2064 6.01334 10.7286 5.53721 10.9818 4.90417C11.159 4.46122 11.25 3.98853 11.25 3.51146V2.98364C11.25 2.63846 11.5298 2.35864 11.875 2.35864C12.9105 2.35864 13.75 3.19811 13.75 4.23364C13.75 5.19333 13.5337 6.1025 13.1472 6.91506C12.9259 7.38034 13.2364 7.98364 13.7516 7.98364M13.7516 7.98364H16.3564C17.212 7.98364 17.9778 8.56197 18.0683 9.41269C18.1058 9.76455 18.125 10.1218 18.125 10.4836C18.125 12.8567 17.2984 15.0366 15.9175 16.7513C15.5945 17.1524 15.0952 17.3586 14.5802 17.3586H11.2335C10.8305 17.3586 10.4301 17.2937 10.0477 17.1662L7.45231 16.3011C7.06994 16.1736 6.66952 16.1086 6.26646 16.1086H4.92017M13.7516 7.98364H11.875M4.92017 16.1086C4.98918 16.2791 5.06428 16.4465 5.14519 16.6105C5.30947 16.9434 5.08017 17.3586 4.7089 17.3586H3.95241C3.21181 17.3586 2.52493 16.927 2.3088 16.2186C2.02674 15.2942 1.875 14.3129 1.875 13.2961C1.875 12.0024 2.12067 10.7661 2.56791 9.63124C2.82212 8.98617 3.47278 8.60864 4.16613 8.60864H5.04343C5.4367 8.60864 5.66442 9.0719 5.46025 9.40802C4.77157 10.5418 4.375 11.8727 4.375 13.2961C4.375 14.2907 4.5686 15.2401 4.92017 16.1086Z" stroke="#565D60" stroke-width="1.5" stroke-linecap="round" stroke-linejoin="round"/></svg>